<svg xmlns="http://www.w3.org/2000/svg" viewBox="0 0 24 24" width="24" height="24" fill="none">
  <!-- Slanted Cricket Bat -->
  <path d="M4 17.5L2.5 19C2.2 19.3 2.2 19.7 2.5 20C2.8 20.3 3.2 20.3 3.5 20L5 18.5Z" fill="#ffffff"/>
  <path d="M5.5 16L13.5 8C14.2 7.3 15.2 7.3 15.8 8C16.4 8.6 16.4 9.6 15.8 10.3L7.8 18.3C7.3 18.8 6.5 18.6 6 18.1L5.6 17.7C5.1 17.2 4.9 16.4 5.5 16Z" fill="#ffffff"/>
  <!-- Wicket Stumps behind/beside -->
  <!-- Bails -->
  <rect x="15" y="7" width="8" height="1.2" rx="0.5" fill="#f8fafc"/>
  <!-- 3 Stumps -->
  <rect x="16" y="8.5" width="1.5" height="13" rx="0.6" fill="#f8fafc"/>
  <rect x="18.5" y="8.5" width="1.5" height="13" rx="0.6" fill="#f8fafc"/>
  <rect x="21" y="8.5" width="1.5" height="13" rx="0.6" fill="#f8fafc"/>
</svg>
