<svg xmlns="http://www.w3.org/2000/svg" viewBox="0 0 200 200" width="100%" height="100%">
  <defs>
    <linearGradient id="strikeOrange" x1="0%" y1="0%" x2="100%" y2="100%">
      <stop offset="0%" stop-color="#F97316" />
      <stop offset="100%" stop-color="#EA580C" />
    </linearGradient>
    <linearGradient id="fireYellow" x1="0%" y1="0%" x2="100%" y2="100%">
      <stop offset="0%" stop-color="#FDE047" />
      <stop offset="100%" stop-color="#F59E0B" />
    </linearGradient>
  </defs>
  <rect width="200" height="200" rx="36" fill="#030712" />
  <!-- Hexagon Badge -->
  <polygon points="100,26 164,63 164,137 100,174 36,137 36,63" fill="url(#strikeOrange)" />
  <polygon points="100,36 154,69 154,131 100,164 46,131 46,69" fill="#18181B" />
  <!-- Roaring Lion / Flame Striker Silhouette -->
  <path d="M 100 55 C 80 55, 68 70, 68 85 C 68 95, 74 105, 82 110 L 80 135 L 94 125 L 100 135 L 106 125 L 120 135 L 118 110 C 126 105, 132 95, 132 85 C 132 70, 120 55, 100 55 Z" fill="url(#fireYellow)" />
  <!-- Stylized Eyes and Mane Cutouts -->
  <circle cx="90" cy="82" r="3.5" fill="#18181B" />
  <circle cx="110" cy="82" r="3.5" fill="#18181B" />
  <polygon points="100,90 94,98 106,98" fill="#18181B" />
  <path d="M 88 104 Q 100 112 112 104" fill="none" stroke="#18181B" stroke-width="3" stroke-linecap="round" />
</svg>
